# xmcd
#
# Track frame offsets:
#  150
#  16447
#  30754
#  44365
#  53406
#  65974
#  84712
#  120608
#  148946
#
# Disc length: 2259 seconds
#
# Revision: 2
# Processed by: cddbd v1.5.2PL0 Copyright (c) Steve Scherf et al.
# Submitted via: Collectorz.com_Music_Collector 6.11
#
DISCID=7708d109
DTITLE=Breakout - Blues
DYEAR=1971
DGENRE=Blues
TTITLE0=Ona Poszła Inną Drogą
TTITLE1=Kiedy Byłem Małym Chłopcem
TTITLE2=Oni Zaraz Przyjdą Tu
TTITLE3=Przyszła Do Mnie Bieda
TTITLE4=Pomaluj Moje Sny
TTITLE5=Usta Me Ogrzej
TTITLE6=Gdybym Był Wichrem
TTITLE7=Co Stało Się Kwiatom
TTITLE8=Dzisiejszej Nocy
EXTD=
EXTT0=
EXTT1=
EXTT2=
EXTT3=
EXTT4=
EXTT5=
EXTT6=
EXTT7=
EXTT8=
PLAYORDER=
